# xmcd
#
# Track frame offsets: 
#        150
#        12022
#        24242
#        35337
#        45577
#        56660
#        69900
#        81385
#        91162
#        102810
#        113150
#        126925
#        150000
#        162927
#        174937
#        187035
#        198140
#        211285
#        223035
#        235597
#        247417
#
# Disc length: 3490 seconds
#
# Revision: 4
# Processed by: cddbd v1.5.2PL0 Copyright (c) Steve Scherf et al.
# Submitted via: ExactAudioCopyFreeDBPlugin 1.0
#
DISCID=090da015
DTITLE=Clarence Carter - Snatching It Back:  The Best of Clarence Cart
DTITLE=er
DYEAR=1992
DGENRE=Soul
TTITLE0=Step by Step
TTITLE1=I Stayed Away Too Long
TTITLE2=Tell Daddy
TTITLE3=Looking for a Fox
TTITLE4=I Can't See Myself
TTITLE5=The Road of Love
TTITLE6=Slip Away
TTITLE7=Back Door Santa
TTITLE8=That Old Time Feeling
TTITLE9=Too Weak to Fight
TTITLE10=I'd Rather Go Blind
TTITLE11=Making Love (At the Dark End of the Street)
TTITLE12=Snatching it Back
TTITLE13=Soul Deep
TTITLE14=I Smell a Rat
TTITLE15=Doin' Our Thing
TTITLE16=The Feeling is Right
TTITLE17=I Can't Leave Your Love Alone
TTITLE18=Slipped, Tripped and Fell in Love
TTITLE19=It's All in Your Mind
TTITLE20=Patches
EXTD=YEAR: 1992
EXTT0=
EXTT1=
EXTT2=
EXTT3=
EXTT4=
EXTT5=
EXTT6=
EXTT7=
EXTT8=
EXTT9=
EXTT10=
EXTT11=
EXTT12=
EXTT13=
EXTT14=
EXTT15=
EXTT16=
EXTT17=
EXTT18=
EXTT19=
EXTT20=
PLAYORDER=
